<mxfile host="Electron" agent="Mozilla/5.0 (Windows NT 10.0; Win64; x64) AppleWebKit/537.36 (KHTML, like Gecko) draw.io/24.7.17 Chrome/128.0.6613.36 Electron/32.0.1 Safari/537.36" version="24.7.17">
  <diagram name="Page-1" id="-H_mtQnk-PTXWXPvYvuk">
    <mxGraphModel dx="889" dy="1182" grid="1" gridSize="10" guides="1" tooltips="1" connect="1" arrows="1" fold="1" page="1" pageScale="1" pageWidth="1169" pageHeight="827" math="0" shadow="0">
      <root>
        <mxCell id="0" />
        <mxCell id="1" parent="0" />
        <mxCell id="zA23MoTUsTF4_91t8viU-3" value="pymongo-api" style="rounded=1;whiteSpace=wrap;html=1;" parent="1" vertex="1">
          <mxGeometry x="360" y="290" width="120" height="60" as="geometry" />
        </mxCell>
        <mxCell id="zA23MoTUsTF4_91t8viU-4" style="edgeStyle=orthogonalEdgeStyle;rounded=0;orthogonalLoop=1;jettySize=auto;html=1;" parent="1" source="zA23MoTUsTF4_91t8viU-3" target="d-e6jIQ3wyXe82C8wbV5-1" edge="1">
          <mxGeometry relative="1" as="geometry">
            <mxPoint x="420" y="480" as="targetPoint" />
          </mxGeometry>
        </mxCell>
        <mxCell id="d-e6jIQ3wyXe82C8wbV5-3" style="edgeStyle=orthogonalEdgeStyle;rounded=0;orthogonalLoop=1;jettySize=auto;html=1;" edge="1" parent="1" source="d-e6jIQ3wyXe82C8wbV5-1" target="d-e6jIQ3wyXe82C8wbV5-2">
          <mxGeometry relative="1" as="geometry" />
        </mxCell>
        <mxCell id="d-e6jIQ3wyXe82C8wbV5-1" value="Драйвер" style="rounded=1;whiteSpace=wrap;html=1;" vertex="1" parent="1">
          <mxGeometry x="360" y="370" width="120" height="60" as="geometry" />
        </mxCell>
        <mxCell id="d-e6jIQ3wyXe82C8wbV5-5" value="" style="edgeStyle=orthogonalEdgeStyle;rounded=0;orthogonalLoop=1;jettySize=auto;html=1;" edge="1" parent="1" source="d-e6jIQ3wyXe82C8wbV5-2" target="d-e6jIQ3wyXe82C8wbV5-4">
          <mxGeometry relative="1" as="geometry" />
        </mxCell>
        <mxCell id="d-e6jIQ3wyXe82C8wbV5-2" value="Драйвер" style="rounded=1;whiteSpace=wrap;html=1;" vertex="1" parent="1">
          <mxGeometry x="360" y="460" width="120" height="60" as="geometry" />
        </mxCell>
        <mxCell id="d-e6jIQ3wyXe82C8wbV5-7" value="" style="edgeStyle=orthogonalEdgeStyle;rounded=0;orthogonalLoop=1;jettySize=auto;html=1;" edge="1" parent="1" source="d-e6jIQ3wyXe82C8wbV5-4" target="d-e6jIQ3wyXe82C8wbV5-6">
          <mxGeometry relative="1" as="geometry" />
        </mxCell>
        <mxCell id="d-e6jIQ3wyXe82C8wbV5-9" value="" style="edgeStyle=orthogonalEdgeStyle;rounded=0;orthogonalLoop=1;jettySize=auto;html=1;" edge="1" parent="1" source="d-e6jIQ3wyXe82C8wbV5-4" target="d-e6jIQ3wyXe82C8wbV5-8">
          <mxGeometry relative="1" as="geometry" />
        </mxCell>
        <mxCell id="d-e6jIQ3wyXe82C8wbV5-11" value="" style="edgeStyle=orthogonalEdgeStyle;rounded=0;orthogonalLoop=1;jettySize=auto;html=1;" edge="1" parent="1" source="d-e6jIQ3wyXe82C8wbV5-4" target="d-e6jIQ3wyXe82C8wbV5-10">
          <mxGeometry relative="1" as="geometry" />
        </mxCell>
        <mxCell id="d-e6jIQ3wyXe82C8wbV5-4" value="Роутер" style="whiteSpace=wrap;html=1;rounded=1;" vertex="1" parent="1">
          <mxGeometry x="360" y="550" width="120" height="60" as="geometry" />
        </mxCell>
        <mxCell id="d-e6jIQ3wyXe82C8wbV5-14" value="" style="edgeStyle=orthogonalEdgeStyle;rounded=0;orthogonalLoop=1;jettySize=auto;html=1;" edge="1" parent="1" source="d-e6jIQ3wyXe82C8wbV5-6" target="d-e6jIQ3wyXe82C8wbV5-13">
          <mxGeometry relative="1" as="geometry" />
        </mxCell>
        <mxCell id="d-e6jIQ3wyXe82C8wbV5-6" value="Сегмент" style="whiteSpace=wrap;html=1;rounded=1;" vertex="1" parent="1">
          <mxGeometry x="250" y="660" width="120" height="60" as="geometry" />
        </mxCell>
        <mxCell id="d-e6jIQ3wyXe82C8wbV5-12" style="edgeStyle=orthogonalEdgeStyle;rounded=0;orthogonalLoop=1;jettySize=auto;html=1;" edge="1" parent="1" source="d-e6jIQ3wyXe82C8wbV5-8" target="d-e6jIQ3wyXe82C8wbV5-10">
          <mxGeometry relative="1" as="geometry">
            <Array as="points">
              <mxPoint x="620" y="690" />
            </Array>
          </mxGeometry>
        </mxCell>
        <mxCell id="d-e6jIQ3wyXe82C8wbV5-8" value="Сегмент" style="whiteSpace=wrap;html=1;rounded=1;" vertex="1" parent="1">
          <mxGeometry x="450" y="660" width="120" height="60" as="geometry" />
        </mxCell>
        <mxCell id="d-e6jIQ3wyXe82C8wbV5-10" value="Сервер конфигураций" style="whiteSpace=wrap;html=1;rounded=1;" vertex="1" parent="1">
          <mxGeometry x="560" y="550" width="120" height="60" as="geometry" />
        </mxCell>
        <mxCell id="d-e6jIQ3wyXe82C8wbV5-16" value="" style="edgeStyle=orthogonalEdgeStyle;rounded=0;orthogonalLoop=1;jettySize=auto;html=1;" edge="1" parent="1" source="d-e6jIQ3wyXe82C8wbV5-13" target="d-e6jIQ3wyXe82C8wbV5-15">
          <mxGeometry relative="1" as="geometry" />
        </mxCell>
        <mxCell id="d-e6jIQ3wyXe82C8wbV5-13" value="Реплика 1" style="whiteSpace=wrap;html=1;rounded=1;" vertex="1" parent="1">
          <mxGeometry x="250" y="760" width="120" height="60" as="geometry" />
        </mxCell>
        <mxCell id="d-e6jIQ3wyXe82C8wbV5-18" value="" style="edgeStyle=orthogonalEdgeStyle;rounded=0;orthogonalLoop=1;jettySize=auto;html=1;" edge="1" parent="1" source="d-e6jIQ3wyXe82C8wbV5-15" target="d-e6jIQ3wyXe82C8wbV5-17">
          <mxGeometry relative="1" as="geometry" />
        </mxCell>
        <mxCell id="d-e6jIQ3wyXe82C8wbV5-15" value="Реплика 2" style="whiteSpace=wrap;html=1;rounded=1;" vertex="1" parent="1">
          <mxGeometry x="250" y="850" width="120" height="60" as="geometry" />
        </mxCell>
        <mxCell id="d-e6jIQ3wyXe82C8wbV5-17" value="Реплика 3" style="whiteSpace=wrap;html=1;rounded=1;" vertex="1" parent="1">
          <mxGeometry x="250" y="950" width="120" height="60" as="geometry" />
        </mxCell>
        <mxCell id="d-e6jIQ3wyXe82C8wbV5-19" value="" style="edgeStyle=orthogonalEdgeStyle;rounded=0;orthogonalLoop=1;jettySize=auto;html=1;" edge="1" parent="1" target="d-e6jIQ3wyXe82C8wbV5-21" source="d-e6jIQ3wyXe82C8wbV5-8">
          <mxGeometry relative="1" as="geometry">
            <mxPoint x="510" y="720" as="sourcePoint" />
          </mxGeometry>
        </mxCell>
        <mxCell id="d-e6jIQ3wyXe82C8wbV5-20" value="" style="edgeStyle=orthogonalEdgeStyle;rounded=0;orthogonalLoop=1;jettySize=auto;html=1;" edge="1" parent="1" source="d-e6jIQ3wyXe82C8wbV5-21" target="d-e6jIQ3wyXe82C8wbV5-23">
          <mxGeometry relative="1" as="geometry" />
        </mxCell>
        <mxCell id="d-e6jIQ3wyXe82C8wbV5-21" value="Реплика 1" style="whiteSpace=wrap;html=1;rounded=1;" vertex="1" parent="1">
          <mxGeometry x="450" y="760" width="120" height="60" as="geometry" />
        </mxCell>
        <mxCell id="d-e6jIQ3wyXe82C8wbV5-22" value="" style="edgeStyle=orthogonalEdgeStyle;rounded=0;orthogonalLoop=1;jettySize=auto;html=1;" edge="1" parent="1" source="d-e6jIQ3wyXe82C8wbV5-23" target="d-e6jIQ3wyXe82C8wbV5-24">
          <mxGeometry relative="1" as="geometry" />
        </mxCell>
        <mxCell id="d-e6jIQ3wyXe82C8wbV5-23" value="Реплика 2" style="whiteSpace=wrap;html=1;rounded=1;" vertex="1" parent="1">
          <mxGeometry x="450" y="850" width="120" height="60" as="geometry" />
        </mxCell>
        <mxCell id="d-e6jIQ3wyXe82C8wbV5-24" value="Реплика 3" style="whiteSpace=wrap;html=1;rounded=1;" vertex="1" parent="1">
          <mxGeometry x="450" y="950" width="120" height="60" as="geometry" />
        </mxCell>
      </root>
    </mxGraphModel>
  </diagram>
</mxfile>
